<svg width="136" height="218" viewBox="0 0 136 218" fill="none" xmlns="http://www.w3.org/2000/svg">
<path d="M124 189L135.102 189L130.95 178.5L135.102 168H119.5L124 173V189Z" fill="#ffffff"/>
<path d="M11.1015 189L-4.86374e-05 189L4.15177 178.5L-4.86374e-05 168H15.6016L11.1015 173V189Z" fill="#ffffff"/>
<path d="M122 174H13V195H122V174Z" fill="#ffffff"/>
<path d="M27.6364 181.545C28.1818 181.818 28.6364 182.273 28.9091 182.727C29.1818 183.273 29.3636 183.909 29.3636 184.455C29.3636 185.091 29.1818 185.636 28.9091 186.182C28.6364 186.727 28.1818 187.091 27.6364 187.364C27.0909 187.636 26.4545 187.818 25.8182 187.818H23V181H25.8182C26.4545 181.091 27.0909 181.182 27.6364 181.545ZM27 186.455C27.3636 186.273 27.6364 186 27.8182 185.636C28.1818 184.909 28.1818 184 27.8182 183.273C27.6364 182.909 27.3636 182.636 27 182.455C26.6364 182.273 26.2727 182.182 25.8182 182.182H24.2727V186.727H25.8182C26.1818 186.727 26.6364 186.636 27 186.455Z" fill="black"/>
<path d="M30.4548 181.091H35.4548V182.182H31.8185V183.909H35.0912V185H31.8185V186.727H35.6367V187.818H30.4548V181.091Z" fill="black"/>
<path d="M40.1819 182.364C39.9092 182.273 39.5455 182.182 39.1819 182.182C38.9092 182.182 38.6364 182.273 38.4546 182.364C38.2728 182.454 38.1819 182.636 38.1819 182.818C38.1819 183 38.2728 183.182 38.3637 183.273C38.4546 183.364 38.6364 183.545 38.8183 183.545C39.091 183.636 39.3637 183.727 39.6364 183.818C40.0001 183.909 40.3637 184.091 40.7273 184.182C41.0001 184.364 41.2728 184.545 41.4546 184.818C41.6364 185.091 41.8183 185.454 41.7273 185.909C41.7273 186.273 41.6364 186.727 41.3637 187C41.091 187.273 40.8183 187.545 40.4546 187.727C40.0001 187.909 39.5455 188 39.091 188C38.5455 188 38.0001 187.909 37.5455 187.727C37.091 187.545 36.6364 187.273 36.1819 186.909L36.7273 185.818C37.091 186.091 37.4546 186.364 37.9092 186.545C38.2728 186.727 38.7273 186.818 39.091 186.818C39.3637 186.818 39.7273 186.727 39.9092 186.636C40.2728 186.454 40.2728 186 40.091 185.636L40.0001 185.545C39.8183 185.454 39.7273 185.273 39.5455 185.273C39.3637 185.182 39.091 185.091 38.7273 185C38.3637 184.909 38.0001 184.727 37.6364 184.636C37.3637 184.545 37.091 184.273 36.9092 184.091C36.7273 183.818 36.5455 183.454 36.6364 183.091C36.6364 182.727 36.7273 182.364 36.9092 182.091C37.1819 181.818 37.4546 181.545 37.8182 181.364C38.2728 181.182 38.7273 181.091 39.1819 181.091C39.6364 181.091 40.091 181.182 40.4546 181.273C40.8183 181.364 41.2728 181.545 41.6364 181.818L41.091 182.909C40.9092 182.636 40.5455 182.454 40.1819 182.364Z" fill="black"/>
<path d="M43.0911 181.091H44.3638V187.909H43.0911V181.091Z" fill="black"/>
<path d="M50.6367 184.455H51.7276V187.091C51.3639 187.364 50.9094 187.545 50.4548 187.727C50.0003 187.909 49.5457 188 49.0003 188C48.3639 188 47.7276 187.818 47.1821 187.545C46.6367 187.273 46.1821 186.818 45.9094 186.273C45.5457 185.727 45.4548 185.091 45.4548 184.455C45.4548 183.818 45.6367 183.182 45.9094 182.727C46.273 182.182 46.7276 181.727 47.273 181.455C47.8185 181.182 48.4548 181 49.0912 181C49.5457 181 50.0912 181.091 50.5457 181.273C51.0003 181.455 51.4548 181.636 51.7276 182L51.0003 183C50.7276 182.727 50.4548 182.545 50.0912 182.455C49.7276 182.364 49.4548 182.273 49.0912 182.273C48.6367 182.273 48.273 182.364 47.9094 182.545C46.8185 183.182 46.4548 184.636 47.0912 185.727C47.5457 186.455 48.273 186.909 49.0912 186.909C49.3639 186.909 49.5457 186.909 49.8185 186.818C50.0912 186.727 50.3639 186.636 50.5457 186.455L50.6367 184.455Z" fill="black"/>
<path d="M58.0913 181.091H59.364V187.909H58.1822L54.6367 183.182V187.909H53.364V181.091H54.6367L58.1822 185.818L58.0913 181.091Z" fill="black"/>
<path d="M65.273 187.909L64.0912 185.909H62.273V187.909H61.0002V181.091H63.8184C64.5457 181 65.273 181.273 65.9093 181.636C66.3639 182.091 66.6366 182.727 66.6366 183.364C66.6366 183.818 66.5457 184.273 66.273 184.727C66.0002 185.091 65.6366 185.364 65.273 185.545L66.8184 187.818L65.273 187.909ZM62.273 184.727H63.8184C64.273 184.727 64.6366 184.636 65.0002 184.364C65.273 184.091 65.3639 183.818 65.3639 183.455C65.3639 183.091 65.273 182.727 65.0002 182.545C64.6366 182.364 64.273 182.182 63.9093 182.273H62.273V184.727Z" fill="black"/>
<path d="M69.6365 186.364C70.0002 186.636 70.4547 186.818 70.8184 186.818C71.2729 186.818 71.7275 186.636 72.0002 186.364C72.2729 186 72.4547 185.545 72.4547 185.091V181.091H73.7275V185.091C73.7275 185.636 73.6365 186.182 73.3638 186.636C73.0911 187.091 72.7275 187.454 72.3638 187.636C71.9093 187.909 71.3638 188 70.8184 188C70.2729 188 69.7275 187.909 69.182 187.636C68.7275 187.454 68.3638 187.091 68.182 186.636C67.9093 186.182 67.8184 185.636 67.8184 185.091V181.091H69.0911V185.091C69.182 185.545 69.3638 186 69.6365 186.364Z" fill="black"/>
<path d="M78.6366 182.364C78.3639 182.273 78.0002 182.182 77.6366 182.182C77.3639 182.182 77.0911 182.273 76.9093 182.364C76.7275 182.454 76.6366 182.636 76.6366 182.818C76.6366 183 76.7275 183.182 76.8184 183.273C76.9093 183.364 77.0911 183.545 77.273 183.545C77.5457 183.636 77.8184 183.727 78.0911 183.818C78.4548 183.909 78.8184 184.091 79.1821 184.182C79.4548 184.364 79.7275 184.545 79.9093 184.818C80.0911 185.091 80.273 185.454 80.1821 185.909C80.1821 186.273 80.0911 186.727 79.8184 187C79.5457 187.273 79.273 187.545 78.9093 187.727C78.4548 187.909 78.0002 188 77.5457 188C77.0002 188 76.4548 187.909 76.0002 187.727C75.5457 187.545 75.0911 187.273 74.6366 186.909L75.1821 185.818C75.5457 186.091 75.9093 186.364 76.3639 186.545C76.7275 186.727 77.1821 186.818 77.5457 186.818C77.8184 186.818 78.1821 186.727 78.3639 186.636C78.7275 186.454 78.7275 186 78.5457 185.636L78.4548 185.545C78.273 185.454 78.1821 185.273 78.0002 185.273C77.8184 185.182 77.5457 185.091 77.1821 185C76.8184 184.909 76.4548 184.727 76.0911 184.636C75.8184 184.545 75.5457 184.273 75.3639 184.091C75.1821 183.818 75.0002 183.454 75.0911 183.091C75.0911 182.727 75.1821 182.364 75.3639 182.091C75.6366 181.818 75.9093 181.545 76.273 181.364C76.7275 181.182 77.1821 181.091 77.6366 181.091C78.0911 181.091 78.5457 181.182 78.9093 181.273C79.273 181.364 79.7275 181.545 80.0911 181.818L79.5457 182.909C79.3639 182.636 79.0002 182.454 78.6366 182.364Z" fill="black"/>
<path d="M81.5458 181.091H82.8185V184H86.1821V181.091H87.4549V187.909H86.1821V185.182H82.8185V187.909H81.5458V181.091Z" fill="black"/>
<path d="M89.9095 186.728C90.0004 186.819 90.0913 187 90.0913 187.273C90.0913 187.455 90.0004 187.637 89.9095 187.819C89.8186 187.91 89.6368 188 89.455 188C89.2732 188 89.0913 187.91 89.0004 187.819C88.9095 187.637 88.8186 187.455 88.8186 187.273C88.8186 187.091 88.9095 186.91 89.0004 186.728C89.0913 186.637 89.2732 186.546 89.455 186.546C89.6368 186.546 89.8186 186.637 89.9095 186.728Z" fill="black"/>
<path d="M93.5454 183.728C93.1817 183.728 92.8181 183.909 92.5454 184.182C92.2726 184.455 92.1817 184.909 92.1817 185.273C92.1817 185.728 92.2726 186.091 92.5454 186.364C92.8181 186.637 93.1817 186.819 93.5454 186.819C94.0908 186.819 94.6363 186.637 94.909 186.182L95.7272 186.819C95.4545 187.182 95.1817 187.455 94.8181 187.637C94.3635 187.819 93.909 187.909 93.4545 187.909C92.9999 187.909 92.5454 187.819 92.0908 187.546C91.7272 187.364 91.3635 187 91.1817 186.637C90.7272 185.819 90.7272 184.728 91.1817 183.909C91.3635 183.546 91.7272 183.182 92.0908 183C92.5454 182.819 92.9999 182.637 93.4545 182.637C93.909 182.637 94.3635 182.728 94.7272 182.909C95.0908 183.091 95.3635 183.273 95.6363 183.637L94.909 184.364C94.6363 184 94.0908 183.728 93.5454 183.728Z" fill="black"/>
<path d="M100.364 183C100.728 183.182 101.091 183.546 101.364 183.909C101.637 184.364 101.728 184.819 101.728 185.273C101.728 185.728 101.637 186.273 101.364 186.637C101.091 187 100.819 187.364 100.364 187.546C99.9095 187.728 99.455 187.909 98.9095 187.909C98.364 187.909 97.9095 187.819 97.4549 187.546C97.0913 187.364 96.7277 187 96.4549 186.637C96.1822 186.182 96.0913 185.728 96.0913 185.273C96.0913 184.819 96.1822 184.273 96.4549 183.909C96.7277 183.546 97.0004 183.182 97.4549 183C97.9095 182.728 98.364 182.637 98.9095 182.637C99.455 182.637 99.9095 182.728 100.364 183ZM97.9095 184.182C97.364 184.819 97.364 185.819 97.9095 186.455C98.1822 186.728 98.5459 186.909 99.0004 186.909C99.364 186.909 99.8186 186.728 100.091 186.455C100.637 185.819 100.637 184.819 100.091 184.182C99.8186 183.909 99.455 183.728 99.0004 183.728C98.5459 183.728 98.1822 183.819 97.9095 184.182Z" fill="black"/>
<path d="M111 183.181C111.364 183.545 111.546 184.09 111.546 184.636V187.909H110.273V184.999C110.273 184.636 110.182 184.363 110 184.09C109.819 183.909 109.455 183.727 109.182 183.727C108.819 183.727 108.455 183.909 108.182 184.181C107.909 184.454 107.819 184.818 107.819 185.272V187.818H106.546V184.999C106.546 184.636 106.455 184.363 106.273 184.09C106.091 183.909 105.728 183.727 105.455 183.727C105.091 183.727 104.728 183.909 104.455 184.181C104.182 184.454 104.091 184.909 104.182 185.272V187.818H102.909V182.636H104.182V183.636C104.819 182.636 106.182 182.363 107.182 182.909C107.455 183.09 107.728 183.454 107.819 183.818C108.091 182.999 108.909 182.545 109.728 182.545C110.182 182.545 110.637 182.818 111 183.181Z" fill="black"/>
<path d="M8.1145 130V120.976H11.3465V119.328H3.0105V120.976H6.2425V130H8.1145ZM17.5186 130.192C20.7026 130.192 22.9746 127.856 22.9746 124.672C22.9746 121.488 20.7026 119.152 17.5186 119.152C14.3186 119.152 12.0626 121.488 12.0626 124.672C12.0626 127.856 14.3186 130.192 17.5186 130.192ZM17.5186 128.528C15.3586 128.528 13.9826 126.864 13.9826 124.672C13.9826 122.464 15.3586 120.816 17.5186 120.816C19.6626 120.816 21.0546 122.464 21.0546 124.672C21.0546 126.864 19.6626 128.528 17.5186 128.528ZM26.633 130V126H29.465C31.689 126 32.937 124.48 32.937 122.672C32.937 120.848 31.705 119.328 29.465 119.328H24.761V130H26.633ZM29.209 124.352H26.633V120.976H29.209C30.265 120.976 31.017 121.648 31.017 122.672C31.017 123.68 30.265 124.352 29.209 124.352ZM46.908 130L44.284 125.808C45.58 125.6 46.828 124.56 46.828 122.672C46.828 120.688 45.436 119.328 43.324 119.328H38.636V130H40.508V126.016H42.38L44.732 130H46.908ZM43.084 124.368H40.508V120.976H43.084C44.14 120.976 44.908 121.632 44.908 122.656C44.908 123.696 44.14 124.368 43.084 124.368ZM56.0105 130V128.352H50.5705V125.376H55.8985V123.728H50.5705V120.976H56.0105V119.328H48.6985V130H56.0105ZM61.5969 130.192C64.4609 130.192 65.7249 128.656 65.7249 126.88C65.7249 122.912 59.5169 124.144 59.5169 122.144C59.5169 121.36 60.2209 120.816 61.3089 120.816C62.4289 120.816 63.5649 121.2 64.4129 122.048L65.4689 120.656C64.4929 119.696 63.1329 119.152 61.4849 119.152C59.1329 119.152 57.5969 120.512 57.5969 122.288C57.5969 126.208 63.8049 124.816 63.8049 127.056C63.8049 127.776 63.2129 128.528 61.6769 128.528C60.1889 128.528 59.0209 127.824 58.3009 127.04L57.2449 128.496C58.2049 129.488 59.6289 130.192 61.5969 130.192ZM69.3049 130V126H72.1369C74.3609 126 75.6089 124.48 75.6089 122.672C75.6089 120.848 74.3769 119.328 72.1369 119.328H67.4329V130H69.3049ZM71.8809 124.352H69.3049V120.976H71.8809C72.9369 120.976 73.6889 121.648 73.6889 122.672C73.6889 123.68 72.9369 124.352 71.8809 124.352ZM82.1749 130.192C85.3589 130.192 87.6309 127.856 87.6309 124.672C87.6309 121.488 85.3589 119.152 82.1749 119.152C78.9749 119.152 76.7189 121.488 76.7189 124.672C76.7189 127.856 78.9749 130.192 82.1749 130.192ZM82.1749 128.528C80.0149 128.528 78.6389 126.864 78.6389 124.672C78.6389 122.464 80.0149 120.816 82.1749 120.816C84.3189 120.816 85.7109 122.464 85.7109 124.672C85.7109 126.864 84.3189 128.528 82.1749 128.528ZM98.6653 130V119.328H96.7933V126.72L91.3373 119.328H89.4173V130H91.2893V122.368L96.8573 130H98.6653ZM104.597 130.192C107.461 130.192 108.725 128.656 108.725 126.88C108.725 122.912 102.517 124.144 102.517 122.144C102.517 121.36 103.221 120.816 104.309 120.816C105.429 120.816 106.565 121.2 107.413 122.048L108.469 120.656C107.493 119.696 106.133 119.152 104.485 119.152C102.133 119.152 100.597 120.512 100.597 122.288C100.597 126.208 106.805 124.816 106.805 127.056C106.805 127.776 106.213 128.528 104.677 128.528C103.189 128.528 102.021 127.824 101.301 127.04L100.245 128.496C101.205 129.488 102.629 130.192 104.597 130.192ZM112.305 130V119.328H110.433V130H112.305ZM119.998 130L124.19 119.328H122.062L118.83 127.952L115.598 119.328H113.47L117.661 130H119.998ZM132.651 130V128.352H127.211V125.376H132.539V123.728H127.211V120.976H132.651V119.328H125.339V130H132.651ZM31.5851 148L34.6411 137.328H32.5451L30.4651 145.536L28.2571 137.328H26.7691L24.5611 145.536L22.4811 137.328H20.4011L23.4411 148H25.4411L27.5211 140.112L29.5851 148H31.5851ZM43.1902 148V146.352H37.7502V143.376H43.0782V141.728H37.7502V138.976H43.1902V137.328H35.8782V148H43.1902ZM50.5046 148C52.5206 148 53.6086 146.768 53.6086 145.104C53.6086 143.808 52.6966 142.672 51.5446 142.496C52.5366 142.288 53.4006 141.376 53.4006 140.048C53.4006 138.544 52.3286 137.328 50.3606 137.328H45.1126V148H50.5046ZM49.9926 141.728H46.9846V138.976H49.9926C50.9366 138.976 51.4806 139.568 51.4806 140.352C51.4806 141.168 50.9366 141.728 49.9926 141.728ZM50.0726 146.352H46.9846V143.376H50.0726C51.1286 143.376 51.6886 144.064 51.6886 144.864C51.6886 145.792 51.0806 146.352 50.0726 146.352ZM63.6122 148C66.9402 148 69.1802 145.808 69.1802 142.656C69.1802 139.536 66.9402 137.328 63.5962 137.328H59.6282V148H63.6122ZM63.5962 146.352H61.5002V138.976H63.6122C65.9802 138.976 67.2602 140.608 67.2602 142.656C67.2602 144.688 65.9162 146.352 63.5962 146.352ZM78.2996 148V146.352H72.8596V143.376H78.1876V141.728H72.8596V138.976H78.2996V137.328H70.9876V148H78.2996ZM83.8859 148.192C86.7499 148.192 88.0139 146.656 88.0139 144.88C88.0139 140.912 81.8059 142.144 81.8059 140.144C81.8059 139.36 82.5099 138.816 83.5979 138.816C84.7179 138.816 85.8539 139.2 86.7019 140.048L87.7579 138.656C86.7819 137.696 85.4219 137.152 83.7739 137.152C81.4219 137.152 79.8859 138.512 79.8859 140.288C79.8859 144.208 86.0939 142.816 86.0939 145.056C86.0939 145.776 85.5019 146.528 83.9659 146.528C82.4779 146.528 81.3099 145.824 80.5899 145.04L79.5339 146.496C80.4939 147.488 81.9179 148.192 83.8859 148.192ZM91.5939 148V137.328H89.7219V148H91.5939ZM98.9986 148.208C100.839 148.208 102.343 147.424 103.383 146.256V142.272H98.3266V143.92H101.527V145.568C101.047 146.032 100.087 146.528 98.9986 146.528C96.8866 146.528 95.3186 144.896 95.3186 142.672C95.3186 140.416 96.8866 138.816 98.9986 138.816C100.183 138.816 101.191 139.44 101.767 140.24L103.287 139.36C102.439 138.144 101.079 137.152 98.9986 137.152C95.8946 137.152 93.3986 139.312 93.3986 142.672C93.3986 146.016 95.8946 148.208 98.9986 148.208ZM114.579 148V137.328H112.707V144.72L107.251 137.328H105.331V148H107.203V140.368L112.771 148H114.579ZM29.1704 166.192C31.3144 166.192 32.6424 165.056 33.4584 163.776L31.8584 162.976C31.3464 163.856 30.3064 164.528 29.1704 164.528C27.0584 164.528 25.4904 162.896 25.4904 160.672C25.4904 158.416 27.0584 156.816 29.1704 156.816C30.3064 156.816 31.3464 157.472 31.8584 158.368L33.4424 157.536C32.6584 156.256 31.3144 155.152 29.1704 155.152C26.0184 155.152 23.5704 157.376 23.5704 160.672C23.5704 163.952 26.0184 166.192 29.1704 166.192ZM39.9327 166.192C43.1167 166.192 45.3887 163.856 45.3887 160.672C45.3887 157.488 43.1167 155.152 39.9327 155.152C36.7327 155.152 34.4767 157.488 34.4767 160.672C34.4767 163.856 36.7327 166.192 39.9327 166.192ZM39.9327 164.528C37.7727 164.528 36.3967 162.864 36.3967 160.672C36.3967 158.464 37.7727 156.816 39.9327 156.816C42.0767 156.816 43.4687 158.464 43.4687 160.672C43.4687 162.864 42.0767 164.528 39.9327 164.528ZM58.2631 166V155.328H55.6231L52.7271 162.656L49.8151 155.328H47.1751V166H49.0471V157.76L52.3271 166H53.1271L56.3911 157.76V166H58.2631ZM62.4064 166V162H65.2384C67.4624 162 68.7104 160.48 68.7104 158.672C68.7104 156.848 67.4784 155.328 65.2384 155.328H60.5344V166H62.4064ZM64.9824 160.352H62.4064V156.976H64.9824C66.0384 156.976 66.7904 157.648 66.7904 158.672C66.7904 159.68 66.0384 160.352 64.9824 160.352ZM78.6973 166L74.5053 155.328H72.1693L67.9773 166H70.1053L70.8893 163.936H75.7853L76.5693 166H78.6973ZM75.2573 162.288H71.4173L73.3373 157.2L75.2573 162.288ZM89.0949 166V155.328H87.2229V162.72L81.7669 155.328H79.8469V166H81.7189V158.368L87.2869 166H89.0949ZM93.2346 166V155.328H91.3626V166H93.2346ZM102.815 166V164.352H97.3752V161.376H102.703V159.728H97.3752V156.976H102.815V155.328H95.5032V166H102.815ZM108.402 166.192C111.266 166.192 112.53 164.656 112.53 162.88C112.53 158.912 106.322 160.144 106.322 158.144C106.322 157.36 107.026 156.816 108.114 156.816C109.234 156.816 110.37 157.2 111.218 158.048L112.274 156.656C111.298 155.696 109.938 155.152 108.29 155.152C105.938 155.152 104.402 156.512 104.402 158.288C104.402 162.208 110.61 160.816 110.61 163.056C110.61 163.776 110.018 164.528 108.482 164.528C106.994 164.528 105.826 163.824 105.106 163.04L104.05 164.496C105.01 165.488 106.434 166.192 108.402 166.192Z" fill="white"/>
<path d="M67.765 68.6661C67.5774 68.6661 67.5774 68.4654 67.765 68.6661L66.827 68.0638L66.6394 67.863L44.5036 50.9977C44.5036 50.9977 44.3161 50.9977 44.3161 50.797L43.9409 50.3954L43.7533 50.1946H43.3781L37 45.376L49.5686 47.3837C50.1314 47.3837 50.319 47.5845 50.8817 47.7853C51.0693 47.7853 51.4445 47.9861 51.4445 47.9861C52.0073 48.1869 52.1949 48.3876 52.5701 48.5884C52.9453 48.7892 53.1328 48.99 53.508 49.1907C53.6956 49.3915 54.0708 49.5923 54.0708 49.7931C54.2584 49.9939 54.446 49.9939 54.6336 50.1946C55.0088 50.3954 55.1963 50.5962 55.1963 50.797C55.7591 51.3993 56.1343 52.0016 56.6971 52.4032L66.6394 67.4615L66.827 67.6623L67.765 68.6661Z" fill="#ffffff"/>
<path d="M67.7649 91.9564L66.8269 90.3502L66.6393 90.1494L37.1875 45.376L43.5656 50.1946L44.6912 50.9978L66.8269 67.8631H67.0145L67.7649 68.4654C67.7649 68.4654 67.9525 68.4654 67.9525 68.6662L68.8904 67.8631L98.7175 45.376L68.7028 90.3502L68.5153 90.551L67.7649 91.9564Z" fill="#ffffff"/>
<path d="M67.7649 61.0363L66.8269 59.4301L66.6393 59.2293L59.3232 48.3873L66.6393 49.9935H66.8269L67.7649 50.1943L68.7028 49.9935L75.8313 48.1865L68.7028 59.4301V59.6309L67.7649 61.0363Z" fill="#ffffff"/>
<path d="M98.905 45.1748L89.5255 46.5802L85.9612 47.1826C83.1474 47.5841 80.5211 49.1904 78.8328 51.8005L68.8904 67.0595L68.7028 67.2603L67.7649 68.6658L68.8904 67.4611L69.078 67.2603L67.7649 68.6658L93.0897 49.3911L98.905 45.1748Z" fill="#ffffff"/>
<path d="M72.4547 13.4521C72.4547 22.2862 58.1978 26.9041 58.1978 36.3406C58.0102 38.5492 58.573 40.7577 59.5109 42.7655C59.5109 42.7655 54.0708 37.1437 54.0708 31.1204C54.0708 25.0971 59.3233 16.0622 59.3233 16.0622C59.3233 20.0777 60.8241 21.2824 62.3248 21.4831H62.5124C64.2007 21.4831 65.1387 20.0777 65.1387 18.0699C65.1387 16.0622 63.0752 14.0544 63.0752 10.0389C63.0752 6.22409 67.5774 0 67.5774 0C70.7664 4.01554 72.4547 8.63341 72.4547 13.4521Z" fill="#ffffff"/>
<path d="M68.5153 45.5763C64.0131 45.5763 60.6365 41.7615 60.6365 37.1436V36.9429C60.6365 26.7032 73.9554 25.6993 73.9554 11.8457C74.3306 12.448 77.8948 17.6682 77.8948 23.29C77.8948 30.3172 71.7043 32.1242 71.7043 35.5374C71.7043 36.9429 72.2671 37.9468 74.143 37.9468C74.3306 37.9468 74.5182 37.9468 74.7058 37.746C78.27 36.1398 80.7087 32.5258 80.8963 28.3094C80.8963 28.5102 82.7722 45.5763 68.5153 45.5763Z" fill="#ffffff"/>
<path d="M74.3307 37.9468C74.5183 37.9468 74.7058 37.9468 74.8934 37.746C73.0175 38.3483 66.0767 40.1553 66.0767 34.9351C66.0767 28.5102 76.3942 27.1048 76.3942 21.6838C76.3942 18.2706 75.6438 14.8574 73.9555 11.8457C74.3307 12.448 77.8949 17.6682 77.8949 23.29C77.8949 30.3172 71.7044 32.1242 71.7044 35.5374C71.892 36.9429 72.6423 37.9468 74.3307 37.9468Z" fill="#ffffff"/>
<path d="M68.3781 17.0661C68.3781 22.0855 62.3752 21.684 62 21.4832H62.5628C64.2511 21.4832 65.189 20.0778 65.189 18.07C65.189 16.0622 63.1255 14.0544 63.1255 10.0389C63.1255 6.2241 67.6277 0 67.6277 0C66.127 2.61011 65.3766 5.42099 65.189 8.23188C65.189 12.8498 68.3781 13.2513 68.3781 17.0661Z" fill="#ffffff"/>
<path d="M65.162 105.02L60.824 101.932H66.1479L67.9226 96.373L69.5 101.932H74.824L70.4859 105.02L72.0634 110.373L67.7254 107.079L63.1902 110.373L65.162 105.02Z" fill="#ffffff"/>
<path d="M88.338 105.02L84 101.932H89.3239L91.0986 96.373L92.6761 101.932H98L93.662 105.02L95.2394 110.373L90.9014 107.079L86.3662 110.373L88.338 105.02Z" fill="#ffffff"/>
<path d="M111.338 105.02L107 101.932H112.324L114.099 96.373L115.676 101.932H121L116.662 105.02L118.239 110.373L113.901 107.079L109.366 110.373L111.338 105.02Z" fill="#ffffff"/>
<path d="M41.338 105.02L37 101.932H42.3239L44.0986 96.373L45.6761 101.932H51L46.662 105.02L48.2394 110.373L43.9014 107.079L39.5634 110.373L41.338 105.02Z" fill="#ffffff"/>
<path d="M18.338 105.02L14 101.932H19.3239L21.0986 96.373L22.6761 101.932H28L23.662 105.02L25.2394 110.373L20.9014 107.079L16.5634 110.373L18.338 105.02Z" fill="#ffffff"/>
</svg>
