<?xml version="1.0" standalone="no"?>
<!DOCTYPE svg PUBLIC "-//W3C//DTD SVG 20010904//EN"
 "http://www.w3.org/TR/2001/REC-SVG-20010904/DTD/svg10.dtd">
<svg version="1.0" xmlns="http://www.w3.org/2000/svg"
 width="722.000000pt" height="722.000000pt" viewBox="0 0 722.000000 722.000000"
 preserveAspectRatio="xMidYMid meet">
<metadata>
Created by potrace 1.14, written by Peter Selinger 2001-2017
</metadata>
<g transform="translate(0.000000,722.000000) scale(0.100000,-0.100000)"
fill="#000000" stroke="none">
<path d="M3165 6623 c-1010 -39 -1687 -170 -2185 -424 -472 -240 -726 -567
-791 -1018 -15 -106 -7 -360 15 -459 91 -416 367 -749 854 -1031 315 -183 686
-334 1458 -595 549 -185 708 -241 924 -328 750 -302 1117 -609 1232 -1029 19
-71 23 -108 23 -239 0 -149 -1 -158 -33 -250 -127 -364 -453 -581 -971 -645
-238 -29 -159 -30 354 -4 1080 54 1905 271 2407 634 107 77 280 249 347 345
96 137 173 309 213 480 31 136 36 420 10 575 -91 534 -445 954 -1119 1328
-380 211 -779 370 -1763 702 -484 163 -714 247 -930 338 -505 212 -797 438
-887 685 -35 96 -48 244 -28 328 21 93 66 171 138 243 79 78 139 120 240 169
160 78 334 129 556 163 194 29 215 37 101 36 -52 0 -126 -2 -165 -4z"/>
</g>
</svg>
